<?xml version="1.0" standalone="no"?>
<!DOCTYPE svg PUBLIC "-//W3C//DTD SVG 20010904//EN"
 "http://www.w3.org/TR/2001/REC-SVG-20010904/DTD/svg10.dtd">
<svg version="1.0" xmlns="http://www.w3.org/2000/svg"
 width="388.000000pt" height="398.000000pt" viewBox="0 0 388.000000 398.000000"
 preserveAspectRatio="xMidYMid meet">

<g transform="translate(0.000000,398.000000) scale(0.100000,-0.100000)"
fill="#000000" stroke="none">
<path d="M984 3579 c-192 -32 -391 -161 -498 -323 -58 -87 -76 -124 -109 -226
-21 -64 -22 -76 -22 -945 -1 -484 0 -837 2 -785 4 129 8 143 34 129 11 -6 18
-16 16 -24 -4 -9 1 -11 14 -8 10 3 19 9 19 14 0 5 18 9 39 9 24 0 41 5 44 14
5 12 33 14 149 13 79 -1 146 -6 150 -11 3 -5 7 251 8 570 1 632 2 648 60 768
63 133 197 254 341 307 l64 24 613 3 c676 3 672 3 800 -59 138 -67 254 -202
303 -350 l24 -74 0 -615 0 -615 -24 -74 c-45 -136 -149 -264 -271 -334 -76
-43 -145 -66 -240 -78 -58 -7 -87 -15 -78 -20 7 -5 9 -9 5 -9 -4 0 9 -17 30
-38 44 -46 63 -68 63 -78 0 -10 115 -141 172 -195 26 -25 55 -63 63 -83 11
-25 22 -37 38 -38 12 -1 -3 -5 -33 -9 -42 -5 -34 -6 35 -3 243 9 457 129 590
328 61 93 98 180 120 284 22 105 23 1801 1 1914 -60 312 -291 549 -598 612
-67 14 -191 16 -975 15 -494 -1 -921 -5 -949 -10z"/>
<path d="M1344 2910 c-103 -21 -217 -106 -267 -199 -47 -86 -57 -159 -57 -436
0 -290 12 -849 18 -820 2 11 7 23 11 27 11 12 505 12 509 0 2 -6 10 -8 18 -5
8 3 14 0 14 -6 0 -6 8 -11 18 -11 18 0 94 -23 154 -48 20 -8 46 -12 58 -9 13
3 20 0 20 -9 0 -8 4 -14 9 -14 4 0 39 -24 77 -54 37 -30 71 -53 76 -50 4 3 8
0 8 -7 0 -7 3 -9 6 -6 7 7 54 -42 54 -55 0 -5 7 -8 16 -8 30 0 74 -33 74 -57
0 -15 7 -24 23 -27 45 -10 254 -13 320 -5 172 21 307 157 336 339 14 85 14
1033 1 1120 -22 140 -107 251 -238 313 l-67 32 -575 2 c-316 1 -593 -2 -616
-7z m1233 -180 c143 -65 87 -271 -70 -257 -140 12 -171 200 -42 258 50 23 60
23 112 -1z m-545 -161 c136 -28 279 -127 363 -251 87 -130 112 -325 61 -483
-59 -184 -214 -330 -402 -380 -53 -15 -87 -16 -266 -12 -20 1 -34 5 -32 9 5 7
-14 12 -44 11 -7 -1 -11 1 -8 4 3 3 -23 19 -57 36 -79 40 -191 151 -235 234
-40 76 -72 197 -72 273 0 76 32 197 72 273 69 129 222 247 370 283 67 16 181
17 250 3z"/>
<path d="M1832 2375 c-278 -61 -387 -403 -196 -614 182 -201 508 -150 622 97
23 49 26 71 27 152 0 82 -4 103 -27 152 -53 114 -157 194 -283 217 -69 13 -63
13 -143 -4z"/>
<path d="M550 1430 c0 -5 6 -10 14 -10 8 0 18 5 21 10 3 6 -3 10 -14 10 -12 0
-21 -4 -21 -10z"/>
</g>
</svg>
